<svg xmlns="http://www.w3.org/2000/svg" width="128" height="128" viewBox="0 0 14 14">
  <g fill="none">
    <path fill="#d7e0ff" d="M8.348 3.722H5.651l-.669 1.212l-.348.03l-.047.004c-.56.049-1.02.48-1.102 1.035c-.074.503-.14 1.022-.14 1.55c0 .53.066 1.048.14 1.552c.082.555.543.986 1.102 1.034l.047.005c.764.066 1.555.134 2.366.134c.81 0 1.602-.069 2.366-.135l.046-.004a1.22 1.22 0 0 0 1.102-1.034a10.5 10.5 0 0 0 .141-1.551c0-.53-.066-1.048-.14-1.55a1.224 1.224 0 0 0-1.103-1.036l-.046-.004l-.348-.03z"/>
    <path stroke="#4147d5" stroke-linecap="round" stroke-linejoin="round" d="M10.007.943q.555.06 1.102.125a2.09 2.09 0 0 1 1.833 1.836l.12 1.095m-3.055 9.058q.555-.06 1.102-.125a2.09 2.09 0 0 0 1.833-1.836l.12-1.095M3.993.943q-.555.06-1.102.125a2.09 2.09 0 0 0-1.833 1.836l-.12 1.095m3.055 9.058q-.555-.06-1.102-.125a2.09 2.09 0 0 1-1.833-1.836l-.12-1.095m7.41-6.279H5.651l-.669 1.212l-.348.03l-.047.004c-.56.049-1.02.48-1.102 1.035c-.074.503-.14 1.022-.14 1.55c0 .53.066 1.048.14 1.552c.082.555.543.986 1.102 1.034l.047.005c.764.066 1.555.134 2.366.134c.81 0 1.602-.069 2.366-.135l.046-.004a1.22 1.22 0 0 0 1.102-1.034a10.5 10.5 0 0 0 .141-1.551c0-.53-.066-1.048-.14-1.55a1.224 1.224 0 0 0-1.103-1.036l-.046-.004l-.348-.03z" stroke-width="1.25"/>
    <path fill="#fff" d="M7 8.44c.64 0 1-.36 1-1s-.36-1-1-1s-1 .36-1 1s.36 1 1 1"/>
    <path stroke="#4147d5" stroke-linecap="round" stroke-linejoin="round" d="M7 8.44c.64 0 1-.36 1-1s-.36-1-1-1s-1 .36-1 1s.36 1 1 1" stroke-width="1.25"/>
  </g>
</svg>